<svg width="30" height="30" viewBox="0 0 30 30" fill="none" xmlns="http://www.w3.org/2000/svg">
<path d="M15 26.3H15.0003C16.8609 26.299 18.6929 25.8406 20.3346 24.9649C21.9764 24.0893 23.3777 22.8234 24.4151 21.2788L24.5023 21.1489L24.4999 20.9925C24.486 20.0639 24.0125 19.2784 23.3397 18.644C22.669 18.0117 21.7677 17.4959 20.8022 17.0892C18.8735 16.2767 16.5689 15.85 15 15.85C13.4311 15.85 11.1265 16.2767 9.19776 17.0892C8.23231 17.4959 7.33101 18.0117 6.66035 18.644C5.98752 19.2784 5.51399 20.0639 5.50006 20.9925L5.49771 21.149L5.58498 21.2788C7.60863 24.2908 11.076 26.3 15 26.3ZM18.5355 5.46447C17.5979 4.52678 16.3261 4 15 4C13.6739 4 12.4021 4.52678 11.4645 5.46447C10.5268 6.40215 10 7.67392 10 9C10 10.3261 10.5268 11.5979 11.4645 12.5355C12.4021 13.4732 13.6739 14 15 14C16.3261 14 17.5979 13.4732 18.5355 12.5355C19.4732 11.5979 20 10.3261 20 9C20 7.67392 19.4732 6.40215 18.5355 5.46447ZM9.45109 1.60375C11.2103 0.875054 13.0958 0.5 15 0.5C22.9748 0.5 29.5 6.98212 29.5 15C29.5 18.8456 27.9723 22.5338 25.253 25.253C22.5338 27.9723 18.8456 29.5 15 29.5C13.0958 29.5 11.2103 29.1249 9.45109 28.3963C7.69187 27.6676 6.0934 26.5995 4.74695 25.253C2.02767 22.5338 0.5 18.8456 0.5 15C0.5 11.1544 2.02767 7.46623 4.74695 4.74695C6.0934 3.4005 7.69187 2.33244 9.45109 1.60375Z" fill="black" stroke="black"/>
</svg>
